    <?xml version="1.0" standalone="no"?>
<!DOCTYPE svg PUBLIC "-//W3C//DTD SVG 20010904//EN"
 "http://www.w3.org/TR/2001/REC-SVG-20010904/DTD/svg10.dtd">
<svg version="1.0" xmlns="http://www.w3.org/2000/svg"
 width="900.000000pt" height="900.000000pt" viewBox="0 0 900.000000 900.000000"
 preserveAspectRatio="xMidYMid meet">
<metadata>
Created by potrace 1.14, written by Peter Selinger 2001-2017
</metadata>
<g transform="translate(0.000000,900.000000) scale(0.100000,-0.100000)"
fill="#000000" stroke="none">
<path d="M5590 8413 c-8 -3 -22 -11 -30 -18 -8 -7 -26 -16 -40 -20 -64 -18
-118 -54 -209 -139 -230 -215 -243 -227 -280 -288 -12 -21 -27 -38 -33 -38
-20 0 -329 -324 -347 -365 -23 -49 -48 -182 -61 -315 -5 -55 -16 -113 -24
-128 -9 -17 -39 -41 -74 -60 -58 -31 -152 -101 -224 -168 -20 -19 -39 -34 -42
-34 -14 0 -86 -77 -97 -103 -7 -18 -15 -34 -18 -37 -12 -10 -61 -86 -61 -94 0
-4 -16 -27 -35 -50 -19 -24 -35 -48 -35 -53 0 -5 -9 -18 -20 -28 -11 -10 -20
-24 -20 -32 0 -7 -9 -30 -20 -50 -11 -21 -20 -45 -20 -53 0 -23 -48 -111 -78
-145 -16 -16 -41 -49 -56 -72 -32 -48 -48 -52 -115 -28 -23 8 -72 18 -109 21
-37 4 -84 13 -106 20 -21 8 -53 14 -70 14 -17 0 -67 9 -111 20 -44 11 -108 20
-141 20 -46 0 -68 5 -87 20 -14 11 -40 20 -59 20 -18 0 -57 9 -86 20 -30 12
-76 20 -110 20 -32 0 -82 6 -112 14 -30 7 -82 16 -115 20 -33 4 -80 13 -105
21 -25 8 -88 18 -140 24 -102 11 -233 32 -345 56 -38 8 -102 16 -141 18 -39 2
-78 8 -85 13 -8 5 -48 9 -89 10 -41 1 -121 5 -178 9 -120 9 -177 -6 -217 -59
l-24 -31 -3 -331 -3 -331 40 -40 c64 -64 93 -73 251 -83 77 -5 153 -14 167
-19 15 -6 89 -15 164 -21 76 -6 173 -17 216 -25 42 -8 110 -15 150 -15 39 0
104 -7 142 -15 39 -8 115 -19 170 -24 55 -5 114 -14 130 -21 17 -6 73 -14 125
-17 58 -4 104 -12 118 -21 15 -10 69 -18 165 -24 235 -15 399 -34 407 -48 9
-15 3 -37 -15 -60 -9 -11 -11 -85 -6 -297 6 -265 7 -283 27 -310 23 -30 59
-42 77 -24 15 15 37 14 56 -3 37 -32 57 -29 100 16 34 36 43 41 58 32 10 -6
22 -28 26 -48 10 -42 52 -70 90 -61 12 3 40 30 62 60 50 70 64 75 95 34 49
-64 143 -151 179 -166 20 -8 38 -18 41 -22 3 -3 32 -19 65 -35 33 -16 61 -30
63 -32 19 -14 -133 -166 -308 -308 -121 -98 -242 -220 -338 -340 -64 -79 -102
-132 -102 -141 0 -3 -27 -39 -60 -81 -33 -41 -63 -87 -66 -102 -4 -15 -10 -31
-14 -37 -4 -5 -11 -35 -15 -65 -4 -30 -12 -64 -18 -75 -6 -11 -14 -45 -18 -75
-4 -30 -13 -92 -20 -137 -10 -66 -11 -90 -1 -117 7 -18 17 -85 22 -147 9 -119
32 -195 104 -354 41 -89 125 -230 147 -245 4 -3 14 -21 22 -40 9 -19 34 -66
57 -105 82 -143 82 -143 70 -279 -6 -67 -12 -157 -13 -201 -2 -79 -2 -80 -30
-83 -40 -5 -141 33 -173 64 -14 15 -38 49 -53 76 -14 27 -33 63 -43 79 -9 17
-37 54 -63 82 -26 29 -59 77 -73 107 -24 52 -60 127 -91 188 -7 15 -22 36 -31
47 -22 25 -85 157 -98 208 -16 57 -78 162 -109 183 -83 55 -135 74 -208 74
-59 0 -83 -5 -127 -27 -91 -46 -188 -163 -209 -253 -4 -19 -21 -73 -38 -120
-17 -46 -31 -96 -31 -110 -1 -14 -8 -43 -16 -65 -8 -22 -23 -89 -34 -150 -28
-159 -38 -203 -51 -226 -6 -11 -13 -54 -16 -94 -5 -63 -2 -82 17 -127 21 -49
22 -61 16 -198 -3 -80 -9 -174 -12 -209 -13 -132 33 -356 100 -481 25 -47 55
-104 67 -127 12 -24 25 -43 30 -43 5 0 9 -6 9 -13 0 -8 9 -22 20 -32 11 -10
20 -23 20 -29 0 -6 12 -23 28 -37 15 -14 47 -50 72 -79 87 -105 124 -141 158
-156 29 -12 262 -14 1596 -14 l1562 0 26 27 c42 43 67 63 79 63 7 0 27 10 46
21 31 20 43 21 141 14 59 -3 132 -12 162 -20 90 -22 188 -37 198 -31 5 3 24 1
43 -5 19 -6 63 -15 99 -20 35 -5 74 -16 86 -24 13 -8 63 -17 121 -21 l99 -7
12 27 c6 14 17 26 23 26 16 0 34 24 69 91 16 31 36 59 45 63 31 11 103 6 166
-13 35 -10 107 -31 159 -46 52 -15 100 -31 105 -35 6 -4 30 -11 55 -15 25 -4
63 -15 85 -25 22 -10 50 -21 62 -24 12 -4 25 -16 28 -27 6 -19 20 -19 541 -19
l534 0 0 484 0 484 -72 22 c-40 12 -95 26 -123 30 -27 5 -72 16 -100 25 -69
22 -140 42 -202 54 -106 22 -160 33 -248 53 -49 11 -150 27 -224 36 l-134 17
-9 30 c-21 68 -51 117 -89 142 -44 29 -86 35 -444 59 l-110 7 -39 39 c-22 21
-44 38 -50 38 -31 1 -106 103 -106 145 0 8 -9 24 -19 34 -14 14 -21 41 -26 95
-8 84 0 106 40 106 35 0 234 98 275 135 9 8 19 15 23 15 9 0 72 44 92 64 9 9
20 16 25 16 17 0 298 287 322 330 20 34 29 71 37 153 7 59 9 112 6 117 -3 5
-6 42 -6 82 0 40 -9 106 -20 147 -10 41 -19 87 -19 102 0 14 -6 32 -14 38 -8
7 -17 30 -21 51 -4 21 -13 44 -21 51 -8 6 -14 22 -14 35 0 13 -14 50 -32 81
-17 32 -42 80 -56 106 -14 27 -35 56 -47 65 -24 19 -105 127 -105 140 0 4 -43
53 -95 107 -52 55 -95 102 -95 106 0 8 -78 107 -117 149 -41 43 -44 86 -9 123
21 23 28 25 58 17 18 -6 65 -10 105 -10 93 0 155 31 288 144 l46 39 87 -13
c48 -7 110 -23 139 -36 28 -13 58 -24 66 -24 39 0 72 66 97 193 12 60 28 77
72 77 13 0 33 -7 44 -15 30 -23 107 -19 130 6 24 26 45 98 51 172 4 43 10 61
24 70 10 6 19 17 19 23 0 6 9 23 20 37 11 14 20 36 20 50 0 14 8 35 18 47 15
19 17 30 10 69 -18 90 -19 116 -10 158 14 60 -7 140 -51 197 -35 46 -35 48
-42 174 -3 70 -12 170 -20 222 -8 52 -19 167 -24 255 -14 213 -49 361 -100
419 -12 14 -16 38 -16 100 0 67 4 86 22 111 52 71 58 111 56 380 -1 138 -7
279 -13 315 -5 36 -14 115 -19 175 -5 65 -16 122 -25 140 -9 17 -16 40 -16 51
0 82 -141 277 -258 358 -58 40 -82 31 -129 -46 -35 -57 -303 -339 -405 -425
-21 -18 -67 -69 -104 -115 -82 -103 -105 -120 -148 -106 -17 5 -80 18 -141 29
-60 10 -135 23 -165 28 -60 11 -152 44 -184 67 -15 10 -51 14 -131 14 -60 0
-126 5 -145 11 -19 6 -95 14 -168 18 -131 7 -133 7 -158 36 -22 27 -57 94
-108 207 -9 20 -16 45 -16 55 0 10 -4 23 -9 29 -16 16 -58 136 -66 189 -4 27
-13 61 -20 75 -7 14 -15 64 -17 111 -6 88 -26 138 -75 181 -41 37 -112 56
-153 41z m-610 -1789 c80 -8 174 -25 210 -36 92 -28 190 -69 190 -80 0 -4 5
-8 11 -8 26 0 125 -77 222 -173 122 -120 175 -208 213 -348 46 -171 26 -270
-56 -283 -21 -3 -59 -19 -83 -36 -48 -32 -60 -31 -152 10 -94 43 -135 60 -144
60 -5 0 -16 6 -23 13 -7 8 -46 29 -86 47 -63 30 -91 56 -85 80 1 4 7 53 13
110 16 136 1 271 -32 307 -30 32 -70 30 -100 -6 -20 -23 -27 -48 -37 -130 -7
-56 -11 -135 -10 -174 l2 -72 -55 0 c-51 0 -61 4 -119 50 -35 27 -77 61 -94
76 -16 15 -75 64 -130 107 -55 44 -111 95 -125 113 -64 85 -112 176 -105 198
4 15 101 106 148 140 28 20 154 49 222 50 33 1 125 -6 205 -15z m-3199 -260
c17 -8 72 -20 122 -25 51 -6 114 -17 141 -25 27 -8 68 -14 90 -14 23 0 86 -9
141 -19 55 -11 127 -24 160 -31 33 -6 107 -17 165 -25 58 -7 121 -18 140 -24
19 -6 49 -11 67 -11 39 0 143 -26 156 -39 15 -15 19 -194 8 -301 -20 -187 -47
-276 -98 -329 l-28 -29 -110 8 c-60 4 -148 15 -194 24 -46 9 -104 16 -130 16
-25 0 -73 7 -106 15 -33 8 -139 19 -237 25 -97 5 -188 14 -203 20 -14 5 -46
10 -69 10 -24 0 -58 3 -75 6 -27 6 -31 11 -31 38 0 17 7 51 16 76 13 36 16
102 18 335 2 261 6 315 22 315 3 0 19 -7 35 -16z m5854 -189 c22 -7 57 -16 77
-19 133 -23 248 -134 248 -239 0 -77 -69 -159 -200 -237 -88 -52 -162 -109
-251 -193 -94 -90 -213 -121 -273 -73 l-30 23 17 36 c9 19 17 43 17 52 0 10 8
39 17 65 16 46 16 53 -5 174 -27 151 -50 199 -94 194 -26 -3 -33 -11 -54 -58
-20 -49 -23 -70 -23 -190 0 -74 4 -153 10 -175 22 -83 22 -93 2 -97 -10 -2
-43 2 -73 9 -37 10 -146 15 -340 18 l-285 4 1 30 c1 17 9 38 18 46 9 9 16 27
16 41 0 64 141 300 204 340 88 57 258 144 280 144 6 0 28 9 48 20 21 11 55 24
75 30 21 5 88 23 148 39 100 27 124 30 260 29 93 0 165 -5 190 -13z m-4426
-56 c58 -5 127 -16 153 -24 25 -8 77 -19 115 -25 37 -5 82 -14 98 -19 17 -5
56 -12 89 -15 32 -4 68 -12 80 -18 11 -7 55 -17 96 -24 139 -23 225 -41 245
-51 11 -6 45 -14 75 -17 55 -7 239 -38 335 -57 28 -5 102 -15 165 -23 63 -7
131 -20 150 -28 35 -16 160 -137 160 -155 0 -6 18 -33 40 -61 22 -27 40 -54
40 -59 0 -6 9 -18 20 -28 11 -10 20 -25 20 -33 0 -9 8 -24 18 -35 14 -15 17
-38 17 -116 l0 -96 -123 2 c-67 1 -137 6 -155 13 -18 6 -115 16 -217 21 -102
4 -232 15 -290 23 -58 8 -139 20 -180 26 -41 6 -131 15 -200 21 -69 5 -177 16
-240 24 -63 8 -144 17 -180 20 -36 4 -90 13 -120 20 -31 8 -151 17 -277 21
l-223 7 0 24 c0 14 14 42 30 63 17 21 30 43 30 49 0 7 9 31 19 54 21 45 51
297 51 423 0 72 12 99 39 89 8 -3 62 -10 120 -16z m1934 -1853 c24 -20 54 -36
67 -36 13 0 31 -6 39 -14 16 -13 126 -40 236 -56 33 -5 91 -25 129 -45 39 -19
84 -35 102 -35 38 0 64 -9 64 -21 0 -11 -103 -134 -211 -250 -49 -52 -100
-113 -115 -135 -14 -21 -34 -46 -43 -56 -9 -9 -32 -40 -51 -68 -19 -28 -64
-86 -100 -129 -36 -42 -77 -92 -91 -111 l-27 -35 -41 44 c-55 60 -96 201 -122
426 -5 50 -16 142 -24 206 -8 63 -15 153 -15 200 0 75 3 89 26 123 26 38 27
39 80 33 42 -4 63 -13 97 -41z m-2176 -1776 c21 -13 48 -35 61 -49 35 -41 72
-120 72 -156 0 -18 7 -38 15 -45 8 -7 17 -27 21 -46 3 -19 10 -37 15 -40 5 -3
16 -20 24 -37 8 -18 26 -50 39 -72 42 -69 56 -98 56 -111 0 -18 -33 -26 -73
-19 -46 9 -80 -10 -142 -80 -27 -31 -66 -74 -87 -96 l-36 -39 -110 6 c-107 7
-112 6 -154 -19 -73 -44 -116 -93 -152 -169 -24 -49 -43 -55 -78 -21 -34 33
-38 94 -9 151 10 20 21 57 25 82 16 111 40 230 57 283 10 31 19 70 19 85 0 16
7 37 15 48 8 10 15 27 15 37 0 10 8 37 19 60 10 23 22 56 26 74 3 17 13 37 21
44 8 6 14 16 14 21 0 21 55 74 109 106 51 29 62 32 118 29 41 -3 75 -12 100
-27z"/>
<path d="M6303 33 c9 -2 23 -2 30 0 6 3 -1 5 -18 5 -16 0 -22 -2 -12 -5z"/>
</g>
</svg>
